<svg xmlns="http://www.w3.org/2000/svg" viewBox="0 0 260.7 73.23"><defs><style>.cls-1{fill:#e6e4e6;}.cls-2{fill:#e6e5e6;}.cls-3{fill:#e8e6e8;}.cls-4{fill:#e7e5e7;}.cls-5{fill:#d5d1d5;}.cls-6{fill:#f4f4f5;}.cls-7{fill:#f4f4f5;}.cls-8{fill:#d8d4d8;}.cls-9{fill:#f4f4f5;}.cls-10{fill:#f4f4f5;}.cls-11{fill:#f4f4f5;}.cls-12{fill:#f4f4f5;}</style></defs><title>Ativo 1</title><g id="Camada_2" data-name="Camada 2"><g id="Camada_1-2" data-name="Camada 1"><path class="cls-1" d="M127.93,73.18h-8.65a1,1,0,0,0-1.67,0H1.27A2.37,2.37,0,0,1,0,73v-.48q36.6,0,73.2,0c1,0,1.29-.2,1.25-1.28-.05-1.36-.28-2.7-.28-4,0-.52-.24-.71-.73-.7s-1,0-1.56,0a4,4,0,0,1-4.14-3.08,4.07,4.07,0,0,1,2.17-4.51,2.11,2.11,0,0,0,1-1.13,5.15,5.15,0,0,1,5.56-3c2.36.53,4.36,3.14,3.85,5.41a.8.8,0,0,0,.31.83,3,3,0,0,1,.69,3.61,3.46,3.46,0,0,1-3.14,1.83c-1,.1-2.25-.45-2.86.28s-.14,1.93-.16,2.92-.34,2.18.12,2.61,1.73.18,2.64.18c2.44,0,4.88,0,7.61,0-1.62-1.28-1.25-2.89-1.26-4.41,0-3.48.08-7,0-10.44-.08-2.42,1.49-3.53,3.65-3.62,1,0,2,0,3,0,.62,0,.88-.23.84-.84a8.92,8.92,0,0,1,.22-2.37c.31-1.51,1-2.42,2.48-2.49a32.48,32.48,0,0,1,7,.12,2.77,2.77,0,0,1,2.48,2.86c.07.86-.4,2,.24,2.52s1.77.13,2.68.19a15.28,15.28,0,0,1,1.56,0,3.46,3.46,0,0,1,3.2,3.8c0,3.64,0,7.28,0,10.92a5.24,5.24,0,0,1-1.17,3.65h6a3.43,3.43,0,0,0-1.74-3.08,2.81,2.81,0,0,1-1.15-2.52c.08-5.63.14-11.26.25-16.89a3.42,3.42,0,0,1,3.35-3.13c2.4-.06,2.4-.06,2.4-2.51,0-1.52,0-3,0-4.56a4,4,0,0,0-.55-2.36,1.74,1.74,0,0,1,1.61-2.8h6.6c.68,0,1.45-.12,1.76.68a2.45,2.45,0,0,1-.12,2.41,2.13,2.13,0,0,0-.43,1.55c.14,2-.31,4-.25,6,.05,1.62,0,1.63,1.61,1.63a4,4,0,0,1,3.76,1.88,3,3,0,0,1,.41,1.59q0,8.16,0,16.32a3.71,3.71,0,0,1-2,3.46c-.88.49-.79,1.3-1,2-.12.48.29.38.53.38h6.26a4,4,0,0,1-1.73-3.89c.06-3.56,0-7.12,0-10.68a9.37,9.37,0,0,1,4.32-8.19,3.09,3.09,0,0,0,1.43-2c.57-2.47,2-3.6,4.23-3.52A4.22,4.22,0,0,1,150,48a2,2,0,0,0,1,1.51A9.71,9.71,0,0,1,155.74,58c.08,3.62,0,7.24,0,10.85a4.16,4.16,0,0,1-1.57,3.44c.35.34.68.21,1,.21,8.48,0,17,0,25.44,0,.94,0,1.13-.22,1.11-1.16,0-1.4-.27-2.78-.27-4.17,0-.53-.25-.71-.74-.69s-1,0-1.44,0A4,4,0,0,1,175,63.39a4.09,4.09,0,0,1,2.18-4.5,2,2,0,0,0,.93-1,5.12,5.12,0,0,1,5.6-3.08c2.32.53,4.36,3.12,3.84,5.42a.8.8,0,0,0,.32.83,3,3,0,0,1,.73,3.51,3.42,3.42,0,0,1-3.19,1.93c-.95.09-2.18-.41-2.77.21s-.19,2-.23,3-.34,2.18.12,2.61,1.73.18,2.65.18l74.4,0c.39,0,1.11-.25,1.13.26s-.72.44-1.15.44H130.07c-.06-.29.1-.43.34-.51-.18,0-.36.08-.54.09a8.78,8.78,0,0,1-2.48-.13C127.84,72.75,128,72.89,127.93,73.18Z"/><path class="cls-1" d="M165.6,0c0,1.31,0,2.61,0,3.92,0,.27,0,.61-.41.56s-.3-.33-.3-.56c0-1.31,0-2.61,0-3.92Z"/><path class="cls-1" d="M121,3.12c2.32-.19,3.87,1.32,5.45,2.71a24.85,24.85,0,0,1,2,2,.79.79,0,0,0,1.23.11c1.06-.71,2.16-1.35,3.24-2a4,4,0,0,1,4.59.2c.85.67.58,1.45,0,2.09a37.77,37.77,0,0,1-2.93,3.46c-.26.24-.61.55-.47.9s.59.33,1,.37a3.51,3.51,0,0,0,2.85-1.27,9.12,9.12,0,0,1,1.48-1.2,1.26,1.26,0,0,1,1.46.08,1.12,1.12,0,0,1,.46,1.27,27.11,27.11,0,0,1-2.18,5.68c-.65,1.09-1.9,1.06-3,.9s-2.26-.43-3.39-.62c-.74-.12-1.43-.21-1,1a1.6,1.6,0,0,1-.38,2.05,1.84,1.84,0,0,1-2.32-.29,8.58,8.58,0,0,1-2.38-2.5,3.8,3.8,0,0,0-2.95-2,25,25,0,0,1-5.41-1.44,9.42,9.42,0,0,1-5.09-4.82,3.56,3.56,0,0,1,1.32-4.63C115.85,4.32,118.72,2.95,121,3.12Z"/><path class="cls-2" d="M91.48,43.2c-1.62-.16-3.63.27-5.6-.21-1.68-.4-2.36-1.06-2.56-2.45a3,3,0,0,1,1.85-3c.51-.23.55-.64.73-1a3,3,0,0,1,3.38-1.88.89.89,0,0,0,.89-.3c2.22-2.16,4.87-1.86,6.67.75a2,2,0,0,0,1.2.68c1.68.61,2.93,2.34,2.72,3.78a3.89,3.89,0,0,1-3.89,3.65C95.2,43.23,93.52,43.2,91.48,43.2Z"/><path class="cls-2" d="M204.36,33.36c-1.71-.15-3.79.26-5.84-.23a2.74,2.74,0,0,1-2.41-2.46,3,3,0,0,1,1.78-3c.5-.21.6-.58.78-1a3,3,0,0,1,3.45-1.94.85.85,0,0,0,.88-.36,4.08,4.08,0,0,1,6.61.72c.26.51.73.58,1.16.74,1.78.64,3,2.35,2.79,3.84a3.89,3.89,0,0,1-4,3.62c-.8,0-1.6,0-2.4,0Z"/><path class="cls-3" d="M45.47,31.44c1.44-.12,2.37.84,3.32,1.66,1.47,1.27,1.45,1.33,3.14.33.79-.47,1.49-1,2.52-.55s1.25.83.54,1.76c-.48.63-1,1.21-1.54,1.82-.12.14-.33.27-.21.5a.55.55,0,0,0,.51.24,1.93,1.93,0,0,0,1.49-.63,6.06,6.06,0,0,1,.7-.65,1,1,0,0,1,1.13,0,.75.75,0,0,1,.2,1c-.34.93-.68,1.87-1,2.8a1.42,1.42,0,0,1-1.57.81,7.81,7.81,0,0,1-1.63-.3c-.78-.2-1.37-.32-1.22.88.12.91-.48,1.11-1.24.76a4.65,4.65,0,0,1-1.81-1.7,2.44,2.44,0,0,0-1.53-1,12.08,12.08,0,0,1-4.46-1.6A6,6,0,0,1,41,35.44c-.53-1-.13-2.08,1-2.89A6.82,6.82,0,0,1,45.47,31.44Z"/><path class="cls-4" d="M169.43,9.67a4.19,4.19,0,1,1-8.38.09,4.19,4.19,0,1,1,8.38-.09Z"/><path class="cls-4" d="M160.64,18.15a.42.42,0,0,1-.26-.66c.56-1,1.17-2.06,1.78-3.07a.43.43,0,0,1,.62-.16c.18.11.12.29,0,.42q-.94,1.64-1.9,3.28C160.86,18,160.73,18.09,160.64,18.15Z"/><path class="cls-4" d="M170.25,7.27c-.33.12-.49.07-.51-.12a.54.54,0,0,1,.11-.43,18.7,18.7,0,0,1,3.26-1.9.39.39,0,0,1,.52.15.33.33,0,0,1-.07.31C172.42,6,171.27,6.67,170.25,7.27Z"/><path class="cls-4" d="M157.43,4.8a24.17,24.17,0,0,1,3.24,2,.46.46,0,0,1,.05.43c-.12.23-.33.14-.51,0C159.16,6.65,158.1,6,157,5.41a.48.48,0,0,1-.2-.38C156.88,4.77,157.13,4.83,157.43,4.8Z"/><path class="cls-4" d="M168,14.16c.11.08.28.15.35.27.59,1,1.18,2,1.73,3,.12.22.21.58-.13.71s-.39-.18-.51-.38c-.56-1-1.12-1.9-1.67-2.86C167.61,14.6,167.42,14.28,168,14.16Z"/><path class="cls-4" d="M173.68,14.35a.44.44,0,0,1-.69.23c-1-.57-2.05-1.18-3.07-1.79a.42.42,0,0,1-.18-.52c.1-.25.3-.21.49-.11q1.64.94,3.28,1.91C173.58,14.12,173.62,14.26,173.68,14.35Z"/><path class="cls-4" d="M170.23,1.86c-.66,1.07-1.33,2.18-2,3.28a.47.47,0,0,1-.43.08c-.25-.09-.19-.31-.09-.49q.92-1.59,1.84-3.18c.11-.18.28-.33.48-.2S170.13,1.61,170.23,1.86Z"/><path class="cls-4" d="M162.79,4.7c.12.34.07.5-.12.52a.54.54,0,0,1-.43-.11,18.74,18.74,0,0,1-1.9-3.26.39.39,0,0,1,.15-.52.33.33,0,0,1,.31.07C161.51,2.54,162.19,3.7,162.79,4.7Z"/><path class="cls-4" d="M160.8,12.48c-.1.13-.17.28-.3.36-1,.59-2,1.17-3,1.73-.21.12-.52.15-.65-.07s.14-.47.37-.6l2.86-1.67c.16-.09.35-.23.54-.08S160.75,12.35,160.8,12.48Z"/><path class="cls-1" d="M157.74,10.07h-1.66c-.25,0-.5-.06-.49-.38s.21-.32.42-.32h3.56c.21,0,.41.08.43.32s-.24.38-.48.38Z"/><path class="cls-1" d="M172.61,10.07h-1.66c-.25,0-.5-.06-.47-.39s.22-.31.43-.31h3.56c.21,0,.41.09.42.33s-.25.37-.49.37Z"/><path class="cls-1" d="M164.89,17.09c0-.55,0-1.11,0-1.66,0-.25.06-.5.39-.47s.31.22.31.43q0,1.78,0,3.56c0,.21-.09.41-.33.42s-.37-.25-.37-.49C164.88,18.28,164.89,17.68,164.89,17.09Z"/><path class="cls-5" d="M127.93,73.18c-.06-.22-.39-.34-.25-.61a7.7,7.7,0,0,1,2.66,0c.13.27-.2.39-.26.61Z"/><path class="cls-5" d="M117.6,73.19c-.11-.25-.51-.23-.53-.71.68,0,1.37,0,2.05,0,.94,0,.2.44.15.7Z"/><path class="cls-6" d="M133,58.64c0,2.56,0,5.11,0,7.67a3,3,0,0,1-3.16,3.27c-4.27.06-8.52-.35-12.79-.25a2.55,2.55,0,0,1-2.5-2.57c.08-4.26-.26-8.53.19-12.8.12-1.19,0-2.39,0-3.59a2.53,2.53,0,0,1,2.66-2.61q6.23,0,12.46,0c2.12,0,3.12,1.07,3.12,3.2q0,3.83,0,7.67Z"/><path class="cls-6" d="M97.8,72.24H88.09c-2.2,0-3.13-.94-3.13-3.12q0-4.62,0-9.23c0-.5-.12-1.2.7-1.05s1.93-.66,2.14.75c.13.85.6.93,1.25.89s1.38.19,1.42-.81c0-.55.34-.64.79-.64h13.07c.37,0,.72,0,.8.5.12.81.7,1,1.41.95a1.33,1.33,0,0,0,1.48-.9c.46-1.16,1.52-.42,2.29-.51s.54.63.56,1.06c.17,3.31-.33,6.61-.25,9.92,0,1.28-1.12,2.17-2.64,2.18C104.59,72.25,101.19,72.24,97.8,72.24Z"/><path class="cls-6" d="M154.72,57.67a1.49,1.49,0,0,1-1.16-1.32,7.22,7.22,0,0,0-4.94-6.2,7.74,7.74,0,0,0-8.23,1.65,6.23,6.23,0,0,0-2.15,4.53c0,1,0,2,0,3,0,.3-.06.74.4.7s.3-.41.32-.69a19.33,19.33,0,0,1,.19-3.69,6.57,6.57,0,0,1,6.6-5.2,6.69,6.69,0,0,1,6.77,4.88,3.27,3.27,0,0,1,0,2.54,1.43,1.43,0,0,0,.72,1.85c1.46,1,1.68,2.3,1.58,3.9-.11,1.87,0,3.76,0,5.64A2.53,2.53,0,0,1,152.14,72q-6.24,0-12.48,0a2.64,2.64,0,0,1-2.86-2.83c0-3.8-.09-7.6,0-11.4a9.06,9.06,0,0,1,8.1-8.88c5.33-.67,9.92,4,9.87,8.39A2.22,2.22,0,0,1,154.72,57.67Z"/><path class="cls-6" d="M179.83,65.76c-2.31,0-3.47-.77-3.94-2.5a3.14,3.14,0,0,1,1.75-3.64,2,2,0,0,0,1.22-1.34,3.91,3.91,0,0,1,4.6-2.61,4,4,0,0,1,3.22,4.59c-.08.61-.1,1,.49,1.37a2.15,2.15,0,0,1,.62,2.6c-.27.92-1.11,1.19-2,1.29a13.57,13.57,0,0,0-2.85.17c-.25.08-.53,0-.54-.29,0-.69-.31-1.46.34-2a16.51,16.51,0,0,1,1.34-1c.28-.19.56-.42.32-.77s-.51-.1-.75,0a3.07,3.07,0,0,0-.58.41c-.76.7-1.47,1.05-2.22,0-.2-.29-.67-.71-1-.38s.14.72.44,1a4.36,4.36,0,0,1,1,1.15C181.93,65.09,181.37,65.76,179.83,65.76Z"/><path class="cls-6" d="M72.51,65.76c-2.27,0-3.44-.81-3.9-2.51a3.12,3.12,0,0,1,1.65-3.58c.59-.27,1.11-.55,1.28-1.29a4.06,4.06,0,0,1,7.85,2c-.08.54-.08.84.42,1.17a2.19,2.19,0,0,1,.71,2.68c-.27.92-1.11,1.19-2,1.28a13.28,13.28,0,0,0-2.85.17c-.25.08-.53,0-.53-.3,0-.69-.31-1.46.35-2,.45-.39,1-.7,1.44-1.06.24-.18.42-.41.21-.7s-.43-.12-.65,0a1.47,1.47,0,0,0-.41.23c-.89.91-1.75,1.32-2.67,0-.15-.21-.54-.52-.82-.22s0,.62.27.88a2.74,2.74,0,0,1,1.32,2.25C74.18,66.31,73.08,65.56,72.51,65.76Z"/><path class="cls-6" d="M97.81,55c3.4,0,6.79,0,10.19,0a2.65,2.65,0,0,1,2.8,2.26c.12.54,0,.89-.6.85-.92-.07-1.93.38-2.56-.87-.34-.68-2-.47-2.38.26s-.72.62-1.24.62H91.55c-.53,0-1,.05-1.14-.7s-.82-.49-1.31-.5-1-.13-1.22.48c-.44,1.37-1.54.47-2.31.69a.45.45,0,0,1-.59-.43,2.31,2.31,0,0,1,.86-2.12,2.9,2.9,0,0,1,1.91-.57C91.1,55,94.46,55,97.81,55Z"/><path class="cls-6" d="M125.76,42.54q0,1.5,0,3a1.73,1.73,0,0,1,0,.59c-.57,1.45-1.78.39-2.67.64-.47.13-1.17.23-1.16-.7A71.54,71.54,0,0,1,122,38.9c.16-1.51,1.67-.5,2.55-.71.52-.12,1.26-.24,1.23.77C125.73,40.15,125.76,41.35,125.76,42.54Z"/><path class="cls-6" d="M97.78,54H96.22c-1.74,0-1.89-.18-1.66-1.91.09-.64.36-1,1.08-1,1.47,0,2.95,0,4.42,0s.85,1.14,1,1.85-.19,1.1-1,1S98.53,54,97.78,54Z"/><path class="cls-7" d="M124,35.52c1.07,0,2.15,0,3.22,0,.65,0,.94.18.92.88s-.28.82-.87.81c-2.11,0-4.22,0-6.33,0-.62,0-1.21-.08-1.22-.94s.65-.72,1.17-.73C122,35.51,123,35.52,124,35.52Z"/><path class="cls-6" d="M123.48,72.48a14.79,14.79,0,0,1-1.91,0c-.45-.06-1.31.41-1.29-.36s.07-1.75,1.47-1.58a24.15,24.15,0,0,0,4.3,0c1.26-.07.9.91,1,1.48.12.74-.58.43-.92.45C125.24,72.51,124.36,72.48,123.48,72.48Z"/><path class="cls-8" d="M109.76,72.56c-1,.53-22.76.56-24,0Z"/><path class="cls-7" d="M145.86,44.89a3.63,3.63,0,0,1,3.32,2.91c0,.24.15.49-.15.61a.46.46,0,0,1-.6-.25c-.13-.24-.19-.52-.31-.77a2.36,2.36,0,0,0-4.4,0,3.7,3.7,0,0,0-.22.55c-.11.33-.3.61-.68.48s-.28-.54-.23-.83A3.61,3.61,0,0,1,145.86,44.89Z"/><path class="cls-7" d="M103.18,52.64c0,.28,0,.56,0,.84s-.28.52-.64.51-.54-.17-.52-.51a4.57,4.57,0,0,0-.92-3.35.6.6,0,0,1,.17-.85.73.73,0,0,1,.87.19C103.12,50.32,103.12,51.49,103.18,52.64Z"/><path class="cls-7" d="M94.12,49.24a.52.52,0,0,1,.38.86,4.8,4.8,0,0,0-.67,3.2c0,.42-.12.7-.6.69s-.6-.28-.59-.7A7.64,7.64,0,0,1,93,50.23,1.59,1.59,0,0,1,94.12,49.24Z"/><path class="cls-6" d="M97.92,50.15H96.13c-.3,0-.56-.08-.58-.45s.2-.5.52-.5h3.69c.32,0,.54.14.52.5s-.28.44-.58.44Z"/><path class="cls-6" d="M126.85,46.64V38.33h.24v8.31Z"/><path class="cls-7" d="M120.56,46.63v-8.3h.23v8.3Z"/><path class="cls-9" d="M118.43,70.32c.47,0,1.12-.18,1.08.67a1.13,1.13,0,0,1-1.18,1.21,1.15,1.15,0,0,1-1.17-1.11C117.1,70.17,117.87,70.36,118.43,70.32Z"/><path class="cls-5" d="M153.11,72.66H138.53v-.11h14.58Z"/><path class="cls-6" d="M129,70.55c.53,0,1.17-.16,1.11.69a1.07,1.07,0,0,1-2.14,0C127.89,70.36,128.55,70.62,129,70.55Z"/><path class="cls-6" d="M144.37,48a1.47,1.47,0,0,1,1.86-1.18c.52.05,1,.43,1,.89s-.64.26-1,.28C145.64,48,145,48,144.37,48Z"/><path class="cls-7" d="M153.72,58.14a4.94,4.94,0,0,1,1.47,1.61.27.27,0,0,1-.45.27,11.39,11.39,0,0,1-1.43-1.44C153.12,58.33,153.37,58.16,153.72,58.14Z"/><path class="cls-7" d="M89.14,59.52c-.22,0-.52,0-.46-.35a.43.43,0,0,1,.44-.33c.26,0,.5.1.53.36S89.37,59.5,89.14,59.52Z"/><path class="cls-10" d="M106.65,59.06a.31.31,0,0,1,.33.28c0,.32-.19.39-.45.39s-.4-.11-.4-.34S106.3,59.06,106.65,59.06Z"/><path class="cls-11" d="M88.58,57.83c.44-.3.73-.31,1,.09A.77.77,0,0,1,88.58,57.83Z"/><path class="cls-6" d="M118.69,4.44a5.42,5.42,0,0,1,6.15,1c2.71,2.4,5.1,5.16,8,7.35a3.73,3.73,0,0,0,5.26-.27c.47-.43,1-.82,1.46-1.22a.59.59,0,0,1,.77-.09.58.58,0,0,1,.21.74c-.57,1.61-1.07,3.26-1.74,4.83-.47,1.08-1.54,1.15-2.58,1-1.45-.22-2.89-.48-4.34-.71a1.48,1.48,0,0,1-1.32-1.22c-.45-2.73-2.44-3.66-4.77-4.26-.84-.22-1.65-.58-2.48-.88-.27-.1-.56-.2-.78,0s0,.53.09.77c.67,1.33,1.35,2.66,2.12,4.17-3.08-.8-6.13-1-8.57-3.13a9.65,9.65,0,0,1-2.53-3.42,2.13,2.13,0,0,1-.07-1.41c.22-.85.63-1.27,1.64-.86,1.92.77,3.88,1.44,5.84,2.11,1.21.41,1.58.13,2.1-1.21.43-1.11,0-1.65-1-2Z"/><path class="cls-6" d="M123.58,11.57l4.78,1.65a.8.8,0,0,1,.52.46,40.68,40.68,0,0,1,2.22,5.52c.1.42.18.81-.2,1.07a1,1,0,0,1-1.12-.07,6.53,6.53,0,0,1-2-1.74A29.38,29.38,0,0,1,123.58,11.57Z"/><path class="cls-6" d="M134.91,6c.24.06.54.13.84.22,1.82.56,1.89.79.65,2.26-.84,1-1.69,2-2.52,3-.39.47-.75.64-1.28.15-.85-.77-1.75-1.48-2.62-2.24-.23-.2-.53-.48-.06-.75,1.46-.8,2.77-1.86,4.32-2.52A3.57,3.57,0,0,1,134.91,6Z"/><path class="cls-7" d="M122.63,7.14c-.27.48-.15,1.36-1,1.21-.54-.1-1.45,0-1.47-.82,0-.52.1-1.44.92-1.4C121.65,6.16,122.45,6.28,122.63,7.14Z"/><path class="cls-7" d="M119.9,6c-.32.5-.11,1.33-.86,1.41-.43,0-1.19,0-1.14-.68s-.05-1.38.79-1.45A1.14,1.14,0,0,1,119.9,6Z"/><path class="cls-7" d="M114.7,5.91c.69-.35,1.13-.6,1.59-.82s.84-.55,1.17-.12-.11.88-.26,1.31c-.2.6-.64.27-1,.17S115.35,6.15,114.7,5.91Z"/><path class="cls-6" d="M91.67,42.24c-1.76,0-3.51,0-5.27,0a1.91,1.91,0,0,1-2.15-1.63,1.94,1.94,0,0,1,1.46-2.39,1.12,1.12,0,0,0,.84-.85c.61-1.67,1.25-2.11,3-1.79a1,1,0,0,0,1.18-.47,3.24,3.24,0,0,1,5.52.48,1.47,1.47,0,0,0,1.24.91,2.77,2.77,0,0,1,2.4,3.17,2.74,2.74,0,0,1-2.91,2.56C95.18,42.25,93.42,42.24,91.67,42.24Z"/><path class="cls-6" d="M204.48,32.4h-5.15c-1.36,0-2.11-.54-2.29-1.62a2,2,0,0,1,1.56-2.42c.5-.15.59-.45.73-.81.63-1.67,1.27-2.12,3-1.81a1,1,0,0,0,1.19-.45,3.24,3.24,0,0,1,5.52.45,1.46,1.46,0,0,0,1.23.93,2.77,2.77,0,0,1,2.41,3.16,2.74,2.74,0,0,1-2.89,2.58C208,32.41,206.24,32.4,204.48,32.4Z"/><path class="cls-6" d="M44.31,32.2A3.38,3.38,0,0,1,48,33c1.17,1.2,2.36,2.37,3.64,3.46,1.78,1.5,2.47,1.58,4.24.11.23-.19.42-.64.76-.45s.12.63,0,1c-1.22,3.9-1,3-4.15,2.55-.73-.1-1.36-.19-1.53-1a2.68,2.68,0,0,0-2.4-2.16c-.73-.14-1.63-1-2-.55s.45,1.28.71,2c.19.5.2.83-.44.69-1.93-.43-3.79-1-5.05-2.68a2.23,2.23,0,0,1-.52-1.18c-.07-1,.34-1.31,1.3-1s2,.69,2.91,1.09a.81.81,0,0,0,1.23-.52c.18-.53.23-1.12-.49-1.39S45,32.46,44.31,32.2Z"/><path class="cls-6" d="M47,36.39l2.53.89a1.29,1.29,0,0,1,.79.84c.27.71.55,1.4.83,2.11.16.41.4.89-.06,1.18s-.8-.09-1-.37A16,16,0,0,1,47,36.39Z"/><path class="cls-6" d="M54.89,33.84a10.42,10.42,0,0,1-2.11,2.71c-1,0-1.42-.84-1.9-1.46s.41-.67.71-.88c.81-.56,1.54-1.48,2.75-.87C54.59,33.47,54.86,33.53,54.89,33.84Z"/><path class="cls-9" d="M45.69,33.19c.27.17.76.15.71.63,0,.3,0,.8-.58.68-.34-.07-.7-.21-.68-.68S45.27,33.21,45.69,33.19Z"/><path class="cls-9" d="M44.87,33.25c-.12.28-.09.69-.52.65-.23,0-.64,0-.56-.41s0-.7.41-.75A.61.61,0,0,1,44.87,33.25Z"/><path class="cls-12" d="M43.52,32.4c0,1.16-.53,1.23-1.37.74A1.77,1.77,0,0,1,43.52,32.4Z"/><path class="cls-6" d="M168.68,9.69a3.62,3.62,0,0,1-3.35,3.45c-1.65.18-3.5-1.65-3.53-3.38a3.44,3.44,0,1,1,6.88-.07Z"/><path class="cls-4" d="M130.08,57.62a65.6,65.6,0,0,1-.23,7.62c0,.33.08.83-.43.8s-.54-.44-.53-.82c.11-3.14-.22-6.28.18-9.42a32.35,32.35,0,0,0,0-3.58c0-.38-.09-.94.43-1s.52.58.52,1C130.09,54,130.08,55.83,130.08,57.62Z"/><path class="cls-4" d="M124.32,58.52c0,2.12,0,4.23,0,6.35,0,.47.08,1.09-.61,1.07s-.6-.65-.57-1.11c.27-4.22.23-8.44.23-12.67,0-.38-.08-.92.48-.92s.47.55.47.93c0,2.12,0,4.23,0,6.35Z"/><path class="cls-1" d="M117.6,58.59c0-2.11,0-4.23,0-6.34,0-.41-.13-1,.5-1s.45.56.45.94q0,6.4,0,12.79c0,.44,0,1-.6.95s-.34-.63-.35-1c0-2.11,0-4.22,0-6.34Z"/><path class="cls-4" d="M103,71c-1.2-.34-2.51-.66-3.78-1.09-.49-.17-.41-.63-.07-1q1.34-1.36,2.7-2.7c.44-.43.83-.3,1,.25.37,1.29.68,2.6,1,3.91C104,71.09,103.5,71,103,71Z"/><path class="cls-4" d="M106.58,68.16a2,2,0,1,1,2.11-2A2.19,2.19,0,0,1,106.58,68.16Z"/><path class="cls-1" d="M145.84,70.8c-1.92,0-3.84,0-5.75,0a1.64,1.64,0,0,1-1.87-1.57,22.43,22.43,0,0,1-.07-5.95,1.93,1.93,0,0,1,2.13-1.82q5.51-.08,11,0a2.15,2.15,0,0,1,2.3,2.43c0,1.6,0,3.2,0,4.79a1.86,1.86,0,0,1-2.12,2.11Z"/><path class="cls-7" d="M102.87,70.13l-2.65-.79c.05-.16,0-.27.1-.31.59-.49,1.08-1.66,1.74-1.38S102.63,69.16,102.87,70.13Z"/><path class="cls-12" d="M105.27,66.09c.43-.94.88-1.46,1.95-1A3.47,3.47,0,0,1,105.27,66.09Z"/><path class="cls-12" d="M107.7,66.1c-.32,1.2-.72,1.4-1.76,1A4.76,4.76,0,0,1,107.7,66.1Z"/><path class="cls-6" d="M152.86,64.39c0,1.54.07,2.92,0,4.3a1.39,1.39,0,0,1-1.58,1.41c-3.63,0-7.27,0-10.9,0-.94,0-1.42-.35-1.4-1.34,0-1.39,0-2.79,0-4.52,1.07,1.3,2.33,1,3.54,1.06,2,.07,4-.05,6,.17A5.54,5.54,0,0,0,152.86,64.39Z"/><path class="cls-6" d="M145.8,62.4h5.62c.34,0,.77-.14.93.32a1,1,0,0,1-.29,1.09,2.22,2.22,0,0,1-1.69.75c-3,0-6.06,0-9.09,0a1.64,1.64,0,0,1-1.12-.32c-.47-.38-1-.77-.87-1.42s.87-.41,1.36-.41C142.37,62.38,144.09,62.4,145.8,62.4Z"/></g></g></svg>